<svg xmlns="http://www.w3.org/2000/svg" viewBox="0 0 200 200" width="200" height="200">
  <!-- Background gradient -->
  <defs>
    <linearGradient id="bgGrad" x1="0%" y1="0%" x2="100%" y2="100%">
      <stop offset="0%" style="stop-color:#1a1a2e;stop-opacity:1" />
      <stop offset="100%" style="stop-color:#16213e;stop-opacity:1" />
    </linearGradient>
    <linearGradient id="nodeGrad1" x1="0%" y1="0%" x2="100%" y2="100%">
      <stop offset="0%" style="stop-color:#667eea;stop-opacity:1" />
      <stop offset="100%" style="stop-color:#764ba2;stop-opacity:1" />
    </linearGradient>
    <linearGradient id="nodeGrad2" x1="0%" y1="0%" x2="100%" y2="100%">
      <stop offset="0%" style="stop-color:#f093fb;stop-opacity:1" />
      <stop offset="100%" style="stop-color:#f5576c;stop-opacity:1" />
    </linearGradient>
    <linearGradient id="nodeGrad3" x1="0%" y1="0%" x2="100%" y2="100%">
      <stop offset="0%" style="stop-color:#4facfe;stop-opacity:1" />
      <stop offset="100%" style="stop-color:#00f2fe;stop-opacity:1" />
    </linearGradient>
    <filter id="glow">
      <feGaussianBlur stdDeviation="2" result="coloredBlur"/>
      <feMerge>
        <feMergeNode in="coloredBlur"/>
        <feMergeNode in="SourceGraphic"/>
      </feMerge>
    </filter>
  </defs>

  <!-- Background -->
  <rect width="200" height="200" rx="20" fill="url(#bgGrad)"/>

  <!-- Connection lines with glow -->
  <g opacity="0.6" filter="url(#glow)">
    <line x1="100" y1="50" x2="60" y2="90" stroke="#667eea" stroke-width="2.5" stroke-linecap="round"/>
    <line x1="100" y1="50" x2="140" y2="90" stroke="#667eea" stroke-width="2.5" stroke-linecap="round"/>
    <line x1="60" y1="90" x2="40" y2="130" stroke="#f093fb" stroke-width="2.5" stroke-linecap="round"/>
    <line x1="60" y1="90" x2="80" y2="130" stroke="#f093fb" stroke-width="2.5" stroke-linecap="round"/>
    <line x1="140" y1="90" x2="120" y2="130" stroke="#4facfe" stroke-width="2.5" stroke-linecap="round"/>
    <line x1="140" y1="90" x2="160" y2="130" stroke="#4facfe" stroke-width="2.5" stroke-linecap="round"/>
  </g>

  <!-- Root node (Start) -->
  <circle cx="100" cy="50" r="16" fill="url(#nodeGrad1)" filter="url(#glow)"/>
  <circle cx="100" cy="50" r="14" fill="none" stroke="#ffffff" stroke-width="2" opacity="0.3"/>
  <path d="M 95 50 L 100 45 L 105 50 L 100 55 Z" fill="#ffffff"/>

  <!-- Level 1 nodes -->
  <circle cx="60" cy="90" r="14" fill="url(#nodeGrad2)" filter="url(#glow)"/>
  <circle cx="60" cy="90" r="12" fill="none" stroke="#ffffff" stroke-width="1.5" opacity="0.3"/>
  <circle cx="60" cy="90" r="5" fill="#ffffff"/>

  <circle cx="140" cy="90" r="14" fill="url(#nodeGrad2)" filter="url(#glow)"/>
  <circle cx="140" cy="90" r="12" fill="none" stroke="#ffffff" stroke-width="1.5" opacity="0.3"/>
  <circle cx="140" cy="90" r="5" fill="#ffffff"/>

  <!-- Level 2 nodes -->
  <circle cx="40" cy="130" r="12" fill="url(#nodeGrad3)" filter="url(#glow)"/>
  <circle cx="40" cy="130" r="10" fill="none" stroke="#ffffff" stroke-width="1.5" opacity="0.3"/>
  <circle cx="40" cy="130" r="4" fill="#ffffff"/>

  <circle cx="80" cy="130" r="12" fill="url(#nodeGrad3)" filter="url(#glow)"/>
  <circle cx="80" cy="130" r="10" fill="none" stroke="#ffffff" stroke-width="1.5" opacity="0.3"/>
  <circle cx="80" cy="130" r="4" fill="#ffffff"/>

  <circle cx="120" cy="130" r="12" fill="url(#nodeGrad3)" filter="url(#glow)"/>
  <circle cx="120" cy="130" r="10" fill="none" stroke="#ffffff" stroke-width="1.5" opacity="0.3"/>
  <circle cx="120" cy="130" r="4" fill="#ffffff"/>

  <circle cx="160" cy="130" r="12" fill="url(#nodeGrad3)" filter="url(#glow)"/>
  <circle cx="160" cy="130" r="10" fill="none" stroke="#ffffff" stroke-width="1.5" opacity="0.3"/>
  <circle cx="160" cy="130" r="4" fill="#ffffff"/>
</svg>
